<svg xmlns="http://www.w3.org/2000/svg" fill="none" viewBox="0 0 1927 1024" height="1024" width="1927">
<path stroke-miterlimit="10" stroke-width="14" stroke="black" fill="white" d="M361.603 125.963H1386.69C1401.02 125.963 1412.75 137.691 1412.75 152.024V841.568C1412.75 855.902 1401.02 867.63 1386.69 867.63H361.603C347.269 867.63 335.542 855.902 335.542 841.568V152.024C335.542 137.691 347.269 125.963 361.603 125.963Z"></path>
<path fill="#315BF4" d="M348.573 766.641H1394.29C1401.46 766.641 1407.32 772.504 1407.32 779.671V850.255C1407.32 857.422 1401.46 863.285 1394.29 863.285H348.573C341.406 863.285 335.542 857.422 335.542 850.255V779.671C335.542 772.504 341.406 766.641 348.573 766.641Z"></path>
<path fill="#FF3F08" d="M396.036 179.883C403.358 179.883 409.294 173.947 409.294 166.625C409.294 159.303 403.358 153.367 396.036 153.367C388.714 153.367 382.778 159.303 382.778 166.625C382.778 173.947 388.714 179.883 396.036 179.883Z"></path>
<path fill="#FF3F08" d="M435.144 180.547C442.466 180.547 448.402 174.611 448.402 167.289C448.402 159.967 442.466 154.031 435.144 154.031C427.822 154.031 421.887 159.967 421.887 167.289C421.887 174.611 427.822 180.547 435.144 180.547Z"></path>
<path fill="#FF3F08" d="M477.567 180.547C484.889 180.547 490.825 174.611 490.825 167.289C490.825 159.967 484.889 154.031 477.567 154.031C470.245 154.031 464.31 159.967 464.31 167.289C464.31 174.611 470.245 180.547 477.567 180.547Z"></path>
<path fill="white" d="M874.146 844.826C888.54 844.826 900.208 833.158 900.208 818.765C900.208 804.371 888.54 792.703 874.146 792.703C859.753 792.703 848.085 804.371 848.085 818.765C848.085 833.158 859.753 844.826 874.146 844.826Z"></path>
<path fill="black" d="M1412.75 199.805H335.542V212.835H1412.75V199.805Z"></path>
<path stroke-miterlimit="10" stroke-width="14" stroke="black" d="M759.041 871.973C759.041 871.973 769.9 944.728 744.925 952.329"></path>
<path stroke-miterlimit="10" stroke-width="14" stroke="black" d="M1030.69 867.629C1030.69 867.629 1019.83 940.384 1044.81 947.985"></path>
<path stroke-miterlimit="10" stroke-width="14" stroke="black" d="M1129.33 1004.45H683.029C675.862 1004.45 669.998 998.589 669.998 991.422C669.998 991.422 694.322 952.33 701.489 952.33H1110.87C1118.04 952.33 1142.36 991.422 1142.36 991.422C1142.36 998.589 1136.5 1004.45 1129.33 1004.45Z"></path>
<path fill="#398CFF" d="M432.729 299.164H807.364C814.531 299.164 820.394 305.028 820.394 312.195V313.281C820.394 320.448 814.531 326.311 807.364 326.311H432.729C425.563 326.311 419.699 320.448 419.699 313.281V312.195C419.699 305.028 425.563 299.164 432.729 299.164Z"></path>
<path fill="#315BF4" d="M432.729 388.207H667.826C674.993 388.207 680.857 394.071 680.857 401.238V402.324C680.857 409.491 674.993 415.354 667.826 415.354H432.729C425.563 415.354 419.699 409.491 419.699 402.324V401.238C419.699 394.071 425.563 388.207 432.729 388.207Z"></path>
<path fill="#315BF4" d="M433.272 476.709H843.741C850.908 476.709 856.772 482.573 856.772 489.74V490.826C856.772 497.993 850.908 503.856 843.741 503.856H433.272C426.106 503.856 420.242 497.993 420.242 490.826V489.74C420.242 482.573 426.106 476.709 433.272 476.709Z"></path>
<path fill="#315BF4" d="M634.163 580.953H792.704C796.287 580.953 799.219 583.885 799.219 587.469C799.219 591.052 796.287 593.984 792.704 593.984H634.163C630.58 593.984 627.648 591.052 627.648 587.469C627.648 583.885 630.58 580.953 634.163 580.953Z"></path>
<path fill="#398CFF" d="M635.249 615.703H730.808C734.391 615.703 737.323 618.635 737.323 622.219C737.323 625.802 734.391 628.734 730.808 628.734H635.249C631.666 628.734 628.734 625.802 628.734 622.219C628.734 618.635 631.666 615.703 635.249 615.703Z"></path>
<path fill="#398CFF" d="M636.335 693.887H731.894C735.477 693.887 738.409 696.819 738.409 700.402C738.409 703.986 735.477 706.917 731.894 706.917H636.335C632.751 706.917 629.82 703.986 629.82 700.402C629.82 696.819 632.751 693.887 636.335 693.887Z"></path>
<path fill="#398CFF" d="M634.163 655.881H820.937C824.521 655.881 827.453 658.813 827.453 662.396C827.453 665.98 824.521 668.912 820.937 668.912H634.163C630.58 668.912 627.648 665.98 627.648 662.396C627.648 658.813 630.58 655.881 634.163 655.881Z"></path>
<path stroke-miterlimit="10" stroke-width="10" stroke="#FF3F08" d="M449.561 565.752H589.641C596.808 565.752 602.672 571.616 602.672 578.783V705.833C602.672 712.999 596.808 718.863 589.641 718.863H449.561C442.394 718.863 436.53 712.999 436.53 705.833V578.783C436.53 571.616 442.394 565.752 449.561 565.752Z"></path>
<path fill="#FF3F08" d="M517.972 638.506C531.766 638.506 542.948 627.324 542.948 613.53C542.948 599.737 531.766 588.555 517.972 588.555C504.179 588.555 492.997 599.737 492.997 613.53C492.997 627.324 504.179 638.506 517.972 638.506Z"></path>
<path fill="#FF3F08" d="M476.708 701.488C476.708 701.488 474.536 639.592 517.972 640.678C561.408 641.764 555.979 701.488 555.979 701.488H476.708Z"></path>
<path fill="#D2E9FE" d="M1155.39 315.996H943.644C941.255 315.996 939.3 314.041 939.3 311.652C939.3 309.263 941.255 307.309 943.644 307.309H1155.39C1157.78 307.309 1159.74 309.263 1159.74 311.652C1159.74 314.041 1157.78 315.996 1155.39 315.996Z"></path>
<path fill="#D2E9FE" d="M1155.39 369.205H943.644C941.255 369.205 939.3 367.25 939.3 364.861C939.3 362.472 941.255 360.518 943.644 360.518H1155.39C1157.78 360.518 1159.74 362.472 1159.74 364.861C1159.74 367.25 1157.78 369.205 1155.39 369.205Z"></path>
<path fill="#D2E9FE" d="M1155.39 426.757H943.644C941.255 426.757 939.3 424.803 939.3 422.414C939.3 420.025 941.255 418.07 943.644 418.07H1155.39C1157.78 418.07 1159.74 420.025 1159.74 422.414C1159.74 424.803 1157.78 426.757 1155.39 426.757Z"></path>
<path fill="#315BF4" d="M1066.35 722.12C1131.72 722.12 1184.71 669.127 1184.71 603.757C1184.71 538.387 1131.72 485.395 1066.35 485.395C1000.98 485.395 947.987 538.387 947.987 603.757C947.987 669.127 1000.98 722.12 1066.35 722.12Z"></path>
<path fill="#1E294A" d="M1066.05 604.709L1176.84 691.687C1209.87 649.566 1217.3 590.379 1191.02 539.786C1189.91 537.654 1188.75 535.561 1187.55 533.51L1066.05 604.709Z"></path>
<path fill="#FF3F08" d="M1066.35 603.758L1180.97 574.136C1178.77 565.658 1175.59 557.295 1171.38 549.193C1150.27 508.559 1108.89 485.305 1066.05 485.377L1066.35 603.758Z"></path>
<path fill="white" d="M1171.38 549.193C1170.45 547.4 1169.48 545.642 1168.47 543.918L1066.35 603.76L1180.97 574.137C1178.77 565.659 1175.59 557.295 1171.38 549.193Z"></path>
<path fill="white" d="M1179.28 495.169C1169.1 495.169 1160.82 486.888 1160.82 476.709V26.0618C1160.82 15.8826 1169.1 7.60156 1179.28 7.60156H1900.32C1910.5 7.60156 1918.78 15.8826 1918.78 26.0618V476.709C1918.78 486.888 1910.5 495.169 1900.32 495.169H1179.28Z"></path>
<path fill="black" d="M1900.32 15.2025C1906.31 15.2025 1911.18 20.0739 1911.18 26.0615V476.708C1911.18 482.696 1906.31 487.567 1900.32 487.567H1179.28C1173.3 487.567 1168.42 482.696 1168.42 476.708V26.0615C1168.42 20.0739 1173.3 15.2025 1179.28 15.2025H1900.32ZM1900.32 0H1179.28C1164.95 0 1153.22 11.7277 1153.22 26.0615V476.708C1153.22 491.042 1164.95 502.77 1179.28 502.77H1900.32C1914.65 502.77 1926.38 491.042 1926.38 476.708V26.0615C1926.38 11.7277 1914.65 0 1900.32 0Z"></path>
<path fill="black" d="M1926.38 82.5273H1159.74V95.5581H1926.38V82.5273Z"></path>
<path fill="#FF3F08" d="M1210.46 59.3494C1217.78 59.3494 1223.72 53.4137 1223.72 46.0917C1223.72 38.7696 1217.78 32.834 1210.46 32.834C1203.14 32.834 1197.2 38.7696 1197.2 46.0917C1197.2 53.4137 1203.14 59.3494 1210.46 59.3494Z"></path>
<path fill="#FF3F08" d="M1249.57 60.0134C1256.89 60.0134 1262.82 54.0778 1262.82 46.7557C1262.82 39.4337 1256.89 33.498 1249.57 33.498C1242.24 33.498 1236.31 39.4337 1236.31 46.7557C1236.31 54.0778 1242.24 60.0134 1249.57 60.0134Z"></path>
<path fill="#FF3F08" d="M1291.99 60.0134C1299.31 60.0134 1305.25 54.0778 1305.25 46.7557C1305.25 39.4337 1299.31 33.498 1291.99 33.498C1284.67 33.498 1278.73 39.4337 1278.73 46.7557C1278.73 54.0778 1284.67 60.0134 1291.99 60.0134Z"></path>
<path fill="#398CFF" d="M1791.73 155.282H1494.19C1488.82 155.282 1484.42 150.885 1484.42 145.509C1484.42 140.134 1488.82 135.736 1494.19 135.736H1791.73C1797.1 135.736 1801.5 140.134 1801.5 145.509C1801.5 150.885 1797.1 155.282 1791.73 155.282Z"></path>
<path fill="#315BF4" d="M1692.91 199.804H1494.19C1488.82 199.804 1484.42 195.406 1484.42 190.031C1484.42 184.656 1488.82 180.258 1494.19 180.258H1692.91C1698.29 180.258 1702.69 184.656 1702.69 190.031C1702.69 195.406 1698.29 199.804 1692.91 199.804Z"></path>
<path fill="#315BF4" d="M1620.16 244.327H1494.19C1488.82 244.327 1484.42 239.929 1484.42 234.554C1484.42 229.179 1488.82 224.781 1494.19 224.781H1620.16C1625.53 224.781 1629.93 229.179 1629.93 234.554C1629.93 239.929 1625.53 244.327 1620.16 244.327Z"></path>
<path stroke-miterlimit="10" stroke-width="12" stroke="#315BF4" d="M1334.57 274.73C1377.75 274.73 1412.75 239.726 1412.75 196.546C1412.75 153.366 1377.75 118.361 1334.57 118.361C1291.39 118.361 1256.38 153.366 1256.38 196.546C1256.38 239.726 1291.39 274.73 1334.57 274.73Z"></path>
<path stroke-miterlimit="10" stroke-width="12" stroke="#315BF4" d="M1334.57 204.67C1349.15 204.67 1360.97 192.85 1360.97 178.269C1360.97 163.689 1349.15 151.869 1334.57 151.869C1319.99 151.869 1308.17 163.689 1308.17 178.269C1308.17 192.85 1319.99 204.67 1334.57 204.67Z"></path>
<path stroke-miterlimit="10" stroke-width="12" stroke="#315BF4" d="M1294.97 261.531C1294.97 261.531 1294.91 210.762 1334.57 210.762C1374.17 210.762 1374.17 261.531 1374.17 261.531"></path>
<path stroke-miterlimit="10" stroke-width="10" stroke="#D2E9FE" d="M1829.73 440.874H1269.41C1262.25 440.874 1256.38 435.01 1256.38 427.843V325.769C1256.38 318.602 1262.25 312.738 1269.41 312.738H1829.73C1836.9 312.738 1842.77 318.602 1842.77 325.769V427.843C1842.77 435.01 1836.9 440.874 1829.73 440.874Z"></path>
<path fill="#FF3F08" d="M1326.96 363.774C1334.16 363.774 1340 357.94 1340 350.744C1340 343.547 1334.16 337.713 1326.96 337.713C1319.77 337.713 1313.93 343.547 1313.93 350.744C1313.93 357.94 1319.77 363.774 1326.96 363.774Z"></path>
<path fill="#FF3F08" d="M1326.96 407.212C1334.16 407.212 1340 401.378 1340 394.181C1340 386.984 1334.16 381.15 1326.96 381.15C1319.77 381.15 1313.93 386.984 1313.93 394.181C1313.93 401.378 1319.77 407.212 1326.96 407.212Z"></path>
<path fill="#FF3F08" d="M1557.17 358.345H1378C1373.82 358.345 1370.4 354.925 1370.4 350.744C1370.4 346.563 1373.82 343.143 1378 343.143H1557.17C1561.36 343.143 1564.78 346.563 1564.78 350.744C1564.78 354.925 1561.36 358.345 1557.17 358.345Z"></path>
<path fill="#FF3F08" d="M1679.88 401.781H1378C1373.82 401.781 1370.4 398.36 1370.4 394.179C1370.4 389.999 1373.82 386.578 1378 386.578H1679.88C1684.06 386.578 1687.48 389.999 1687.48 394.179C1687.48 398.36 1684.06 401.781 1679.88 401.781Z"></path>
<path fill="#FF3F08" d="M1778.7 401.781H1721.15C1716.96 401.781 1713.54 398.36 1713.54 394.179C1713.54 389.999 1716.96 386.578 1721.15 386.578H1778.7C1782.88 386.578 1786.3 389.999 1786.3 394.179C1786.3 398.36 1782.88 401.781 1778.7 401.781Z"></path>
<path fill="#D2E9FE" d="M1894.89 784.016C1894.89 755.83 1869.91 729.721 1837.34 729.721C1820.06 729.721 1802.34 737.911 1791.21 750.737C1784.42 719.477 1756.61 696.059 1723.32 696.059C1684.93 696.059 1653.82 727.174 1653.82 765.556C1653.82 791.516 1668.06 814.136 1689.15 826.069C1696.02 831.676 1704.77 835.053 1714.27 835.053H1848.38C1856.8 835.053 1864.58 832.172 1870.79 827.357C1885.26 818.348 1894.89 802.311 1894.89 784.016Z"></path>
<path fill="white" d="M26.0918 661.012C15.8952 661.012 7.60132 652.717 7.60132 642.521V428.176C7.60132 417.981 15.8963 409.686 26.0918 409.686H393.063C403.259 409.686 411.554 417.981 411.554 428.176V642.521C411.554 652.717 403.258 661.012 393.063 661.012H26.0918Z"></path>
<path fill="black" d="M393.064 417.287C399.069 417.287 403.953 422.172 403.953 428.176V642.52C403.953 648.524 399.068 653.409 393.064 653.409H26.0917C20.0867 653.409 15.2025 648.524 15.2025 642.52V428.176C15.2025 422.172 20.0878 417.287 26.0917 417.287H393.064ZM393.064 402.084H26.0917C11.7416 402.084 0 413.826 0 428.176V642.52C0 656.87 11.7416 668.612 26.0917 668.612H393.064C407.414 668.612 419.156 656.87 419.156 642.52V428.176C419.156 413.825 407.414 402.084 393.064 402.084Z"></path>
<path fill="#315BF4" d="M79.2704 487.568C88.229 487.568 95.5588 494.898 95.5588 503.857V605.931C95.5588 614.89 88.229 622.22 79.2704 622.22C70.3117 622.22 62.9819 614.89 62.9819 605.931V503.857C62.9819 494.898 70.3117 487.568 79.2704 487.568Z"></path>
<path fill="#315BF4" d="M143.338 439.789C152.297 439.789 159.627 447.119 159.627 456.078V605.931C159.627 614.89 152.297 622.22 143.338 622.22C134.38 622.22 127.05 614.89 127.05 605.931V456.078C127.05 447.119 134.38 439.789 143.338 439.789Z"></path>
<path fill="#315BF4" d="M286.677 524.488C295.635 524.488 302.965 531.818 302.965 540.777V605.931C302.965 614.889 295.635 622.219 286.677 622.219C277.718 622.219 270.388 614.889 270.388 605.931V540.777C270.388 531.818 277.718 524.488 286.677 524.488Z"></path>
<path fill="#315BF4" d="M342.057 487.568C351.016 487.568 358.346 494.898 358.346 503.857V605.931C358.346 614.89 351.016 622.22 342.057 622.22C333.099 622.22 325.769 614.89 325.769 605.931V503.857C325.769 494.898 333.099 487.568 342.057 487.568Z"></path>
<path fill="#FF3F08" d="M216.093 466.936C225.052 466.936 232.382 474.265 232.382 483.224V605.93C232.382 614.889 225.052 622.219 216.093 622.219C207.135 622.219 199.805 614.889 199.805 605.93V483.224C199.805 474.265 207.135 466.936 216.093 466.936Z"></path>
<path fill="black" d="M82.491 997.938H1860.65C1867.81 997.938 1873.68 1003.8 1873.68 1010.97C1873.68 1018.14 1867.81 1024 1860.65 1024H82.491C75.324 1024 69.4602 1018.14 69.4602 1010.97C69.4602 1003.8 75.324 997.938 82.491 997.938Z"></path>
</svg>
