<svg t="1707575908694" class="icon" viewBox="0 0 1024 1024" version="1.1" xmlns="http://www.w3.org/2000/svg" p-id="7154" width="48" height="48"><path d="M907.4688 234.55744c0 16.97792-13.74208 30.72-30.72 30.72L833.35168 265.27744l0 43.39712c0 16.97792-13.74208 30.72-30.72 30.72s-30.72-13.74208-30.72-30.72l0-43.39712L728.51456 265.27744c-16.97792 0-30.72-13.74208-30.72-30.72s13.74208-30.72 30.72-30.72l43.39712 0 0-43.37664c0-16.97792 13.74208-30.72 30.72-30.72s30.72 13.74208 30.72 30.72l0 43.37664L876.7488 203.83744C893.70624 203.83744 907.4688 217.6 907.4688 234.55744zM485.0688 254.38208c-203.20256 0-368.51712 138.21952-368.51712 308.10112 0 169.8816 165.31456 308.08064 368.51712 308.08064 49.68448 0 98.07872-8.25344 143.89248-24.55552l124.416 47.57504c1.18784 0.45056 2.43712 0.67584 3.66592 0.67584 2.048 0 4.07552-0.6144 5.81632-1.80224 2.7648-1.92512 4.42368-5.07904 4.42368-8.43776l0-123.67872c55.7056-55.45984 86.3232-125.56288 86.3232-197.87776C853.6064 392.58112 688.27136 254.38208 485.0688 254.38208z" p-id="7155"></path></svg>